<?xml version="1.0" encoding="utf-8"?>
<!-- Generator: Adobe Illustrator 21.0.2, SVG Export Plug-In . SVG Version: 6.00 Build 0)  -->
<svg version="1.1" id="Layer_2" xmlns="http://www.w3.org/2000/svg" xmlns:xlink="http://www.w3.org/1999/xlink" x="0px" y="0px"
	 viewBox="0 0 16 16" style="enable-background:new 0 0 16 16;" xml:space="preserve">
<style type="text/css">
	.st0{fill:#56749F;}
	.st1{fill:#9FEA6C;}
	.st2{fill:#FFEE6B;}
</style>
<path class="st0" d="M12.4,14.8H3.5c-1.3,0-2.4-1.1-2.4-2.4V3.6c0-1.3,1.1-2.4,2.4-2.4h8.9c1.3,0,2.4,1.1,2.4,2.4v8.9
	C14.8,13.8,13.7,14.8,12.4,14.8z"/>
<g>
	<path class="st1" d="M11.8,2.9h-5C6,2.9,5.4,3.5,5.4,4.2v1.3H4.2c-0.7,0-1.3,0.6-1.3,1.3v4.9c0,0.7,0.6,1.3,1.3,1.3h5
		c0.7,0,1.3-0.6,1.3-1.3v-1.3h1.2c0.7,0,1.3-0.6,1.3-1.3V4.2C13.1,3.5,12.5,2.9,11.8,2.9z M11.7,8.5c0,0.4-0.3,0.7-0.7,0.7H9.2v2
		c0,0.4-0.3,0.7-0.7,0.7H5c-0.4,0-0.7-0.3-0.7-0.7V7.5c0-0.4,0.3-0.7,0.7-0.7h1.8v-2c0-0.4,0.3-0.7,0.7-0.7H11
		c0.4,0,0.7,0.3,0.7,0.7V8.5z"/>
</g>
<path class="st2" d="M10.5,5.1H8.3C8,5.1,7.8,5.4,7.8,5.6v2.1c0,0,0,0-0.1,0H5.5c-0.3,0-0.5,0.2-0.5,0.5v2.2c0,0.3,0.2,0.5,0.5,0.5
	h2.2c0.3,0,0.5-0.2,0.5-0.5V8.3c0,0,0,0,0.1,0h2.2c0.3,0,0.5-0.2,0.5-0.5V5.6C10.9,5.4,10.7,5.1,10.5,5.1z"/>
</svg>
